<?xml version="1.0" standalone="no"?>
<!DOCTYPE svg PUBLIC "-//W3C//DTD SVG 20010904//EN"
 "http://www.w3.org/TR/2001/REC-SVG-20010904/DTD/svg10.dtd">
<svg version="1.0" xmlns="http://www.w3.org/2000/svg"
 width="3038.000000pt" height="1364.000000pt" viewBox="0 0 3038.000000 1364.000000"
 preserveAspectRatio="xMidYMid meet">

<g transform="translate(0.000000,1364.000000) scale(0.100000,-0.100000)"
fill="#000000" stroke="none">
<path d="M15125 13435 c-66 -7 -183 -13 -260 -14 -77 -1 -185 -8 -240 -17 -55
-8 -138 -19 -185 -24 -251 -26 -704 -119 -1025 -212 -961 -276 -1726 -801
-2206 -1514 -194 -289 -274 -490 -320 -799 -23 -156 -24 -246 -4 -340 8 -38
15 -88 15 -109 0 -51 62 -287 101 -385 44 -110 145 -290 189 -336 22 -23 44
-59 51 -85 19 -67 106 -178 269 -341 l145 -146 160 -63 c367 -143 936 -321
1395 -435 388 -96 1046 -220 1380 -260 74 -9 191 -23 260 -31 69 -9 177 -19
240 -24 63 -4 169 -13 235 -19 223 -19 528 -33 843 -38 l312 -5 0 144 0 145
-172 6 c-95 4 -276 7 -401 7 -125 0 -269 4 -320 10 -51 5 -200 14 -332 20
-132 5 -339 21 -460 35 -121 14 -301 30 -400 35 -115 6 -230 18 -320 35 -77
14 -185 30 -240 34 -97 8 -228 31 -425 73 -52 11 -123 24 -157 29 -81 11 -453
109 -618 164 -257 84 -560 221 -723 327 -342 223 -570 518 -607 788 -3 25 -13
87 -21 138 -16 102 -12 156 27 337 50 229 105 354 146 329 10 -6 57 -69 104
-140 104 -155 201 -251 362 -358 144 -96 290 -165 445 -211 119 -35 170 -41
175 -20 2 10 -27 26 -215 114 -129 61 -273 167 -381 280 -204 214 -289 442
-267 718 l8 103 58 82 c74 104 287 320 421 425 399 316 794 517 1429 727 122
41 179 55 198 50 15 -3 25 -11 23 -17 -2 -6 -66 -43 -143 -82 -382 -196 -784
-445 -784 -486 0 -12 40 4 160 65 231 119 579 266 850 360 134 47 493 151 685
200 298 75 825 169 1185 211 63 7 141 18 173 24 31 5 165 13 297 17 l240 7 0
229 0 228 -82 0 c-46 0 -164 7 -263 15 -222 18 -836 18 -1010 0z"/>
<path d="M15680 12680 c-85 -13 -214 -50 -256 -74 -43 -24 -84 -78 -84 -111 0
-11 13 -42 29 -67 44 -70 119 -103 231 -103 63 0 94 5 120 19 50 27 80 56 80
81 0 46 -42 56 -120 29 -48 -17 -144 -14 -163 5 -5 5 -7 20 -3 34 5 20 18 28
78 46 40 11 87 21 105 21 57 0 133 21 154 43 18 20 18 50 0 69 -11 12 -115 17
-171 8z"/>
<path d="M14567 12220 c-16 -5 -69 -14 -118 -20 -114 -13 -186 -40 -229 -85
-22 -22 -51 -40 -77 -47 -39 -9 -42 -12 -37 -37 14 -58 35 -78 113 -109 83
-34 271 -25 349 17 36 19 62 70 62 123 0 40 5 52 30 75 67 59 7 113 -93 83z
m-67 -135 c0 -52 -127 -100 -160 -60 -19 23 -7 37 46 56 63 22 114 24 114 4z"/>
<path d="M16144 12175 c-9 -23 3 -45 24 -45 25 0 46 25 38 45 -7 19 -55 20
-62 0z"/>
<path d="M15010 11982 c-18 -14 -21 -25 -16 -45 13 -53 80 -61 106 -12 31 59
-36 101 -90 57z"/>
<path d="M15886 11698 c-20 -28 -20 -42 -1 -58 22 -19 64 -4 71 25 12 50 -41
75 -70 33z"/>
<path d="M12550 11575 c-87 -29 -139 -72 -159 -133 -18 -52 -4 -88 51 -138
l41 -36 86 4 c78 4 94 8 155 42 38 21 90 60 117 85 60 58 66 101 22 143 -45
41 -71 50 -157 54 -65 3 -95 -1 -156 -21z m161 -75 c47 -26 1 -83 -96 -119
-45 -17 -59 -19 -80 -9 -29 13 -31 25 -9 56 20 29 98 68 162 81 2 1 12 -4 23
-9z"/>
<path d="M15513 11460 c-58 -12 -126 -43 -202 -92 l-63 -42 -45 24 c-61 33
-73 18 -41 -52 34 -74 94 -121 173 -137 124 -24 223 -24 325 1 122 29 141 45
165 131 18 67 18 68 -2 95 -32 43 -98 69 -188 75 -44 3 -99 2 -122 -3z m185
-63 c32 -26 -11 -94 -76 -120 -53 -21 -160 -40 -188 -33 -14 4 -26 16 -30 32
-20 80 220 180 294 121z"/>
<path d="M14020 11402 c-34 -34 -37 -53 -14 -76 34 -34 144 -1 144 43 0 21
-34 46 -74 57 -20 5 -32 0 -56 -24z"/>
<path d="M12782 11265 c-41 -19 -112 -41 -164 -51 -85 -15 -95 -15 -143 0 -69
21 -85 21 -85 -4 0 -31 46 -68 104 -85 47 -14 57 -14 124 5 92 26 181 70 232
116 71 64 45 71 -68 19z"/>
<path d="M14938 10978 c-42 -33 -22 -96 25 -79 25 9 35 54 16 77 -14 17 -21
18 -41 2z"/>
<path d="M16047 10672 c-35 -39 -13 -92 38 -92 31 0 85 32 85 50 0 21 -57 60
-87 60 -11 0 -27 -8 -36 -18z"/>
<path d="M14020 10545 c-25 -7 -80 -16 -123 -20 -66 -6 -84 -11 -109 -34 -64
-57 -25 -157 84 -214 85 -44 196 -54 297 -26 91 25 108 38 91 69 -10 18 -7 32
16 86 31 73 26 99 -22 130 -34 23 -172 28 -234 9z m104 -81 c10 -4 16 -18 16
-39 0 -30 -5 -36 -46 -55 -60 -30 -168 -24 -195 9 -42 52 12 90 128 91 45 0
88 -3 97 -6z"/>
<path d="M15206 10544 c-46 -45 17 -113 68 -73 31 24 42 55 26 74 -16 20 -75
19 -94 -1z"/>
<path d="M11790 10116 c32 -31 357 -206 540 -291 443 -205 980 -390 1485 -511
129 -31 443 -99 520 -112 33 -6 125 -22 205 -36 80 -13 186 -32 235 -40 50 -9
144 -21 210 -26 66 -6 176 -20 245 -31 160 -26 862 -68 1133 -69 l117 0 0 115
c0 63 -3 115 -7 115 -181 10 -437 22 -608 29 -338 15 -672 40 -750 57 -38 8
-142 21 -230 29 -88 9 -225 27 -304 40 -79 14 -165 25 -190 25 -25 0 -71 7
-101 15 -30 8 -122 26 -205 40 -82 14 -166 30 -185 36 -19 5 -66 14 -105 19
-73 11 -385 84 -540 127 -49 14 -139 38 -200 54 -327 86 -863 273 -1116 390
-61 28 -120 49 -140 49 l-34 0 25 -24z"/>
<path d="M15940 10033 c-13 -3 -36 -14 -50 -25 -53 -42 -63 -93 -30 -158 22
-44 39 -57 169 -129 86 -48 99 -53 143 -49 107 11 308 146 308 208 0 27 -2 28
-38 23 -33 -4 -48 1 -115 45 -43 28 -99 57 -125 66 -49 15 -219 28 -262 19z
m273 -135 c24 -12 18 -40 -13 -55 -31 -16 -126 -17 -169 -2 -27 9 -32 16 -29
38 3 22 9 27 43 32 48 7 143 0 168 -13z"/>
<path d="M1660 9955 c-162 -30 -381 -127 -543 -242 -105 -74 -296 -265 -368
-368 -221 -313 -417 -830 -503 -1326 -50 -290 -65 -741 -32 -974 37 -264 79
-431 151 -599 180 -422 470 -687 865 -794 83 -22 116 -25 265 -26 190 -1 267
11 442 69 265 88 527 276 694 498 131 174 221 411 221 582 -1 172 -88 328
-216 386 -85 39 -92 29 -111 -163 -36 -367 -146 -625 -343 -809 -129 -121
-265 -185 -444 -209 -192 -27 -384 29 -520 150 -263 234 -404 801 -368 1477
29 545 133 1006 298 1313 165 309 384 533 595 608 59 21 91 26 177 26 93 1
111 -2 160 -25 149 -71 222 -177 251 -360 13 -84 -6 -226 -47 -348 -45 -135
-155 -285 -278 -380 -31 -24 -56 -50 -56 -58 0 -32 56 -69 145 -99 80 -26 103
-29 210 -28 158 1 212 20 301 109 70 71 140 200 169 313 74 291 -1 660 -184
902 -71 95 -206 220 -289 270 -83 49 -208 94 -302 109 -88 15 -248 12 -340 -4z"/>
<path d="M14905 9596 c-31 -31 -23 -64 19 -81 28 -12 33 -11 54 8 28 26 28 61
0 81 -31 22 -45 20 -73 -8z"/>
<path d="M22245 9104 c-344 -46 -639 -175 -888 -389 -151 -129 -302 -338 -368
-509 -53 -138 -71 -250 -66 -411 7 -210 36 -279 144 -337 135 -74 433 -72 433
3 0 11 -10 48 -21 82 -44 127 -36 393 18 577 49 172 155 346 279 459 85 78
225 166 318 200 228 82 540 82 745 0 233 -93 407 -303 482 -579 20 -73 23
-109 23 -255 0 -142 -3 -184 -21 -256 -27 -106 -90 -256 -138 -325 -87 -126
-264 -270 -403 -328 -133 -56 -368 -92 -405 -62 -31 24 -37 79 -37 366 0 434
22 731 76 1028 31 173 28 189 -50 229 -39 20 -70 27 -133 31 -75 4 -87 2 -146
-26 -156 -72 -212 -177 -273 -502 -36 -196 -45 -426 -42 -1140 3 -682 1 -713
-59 -1000 -35 -164 -35 -190 -3 -208 36 -19 200 -9 281 18 117 40 215 127 276
244 32 61 64 223 78 398 9 98 20 189 25 203 13 35 44 40 225 39 178 -2 254
-16 394 -77 215 -93 380 -267 436 -461 22 -75 22 -219 0 -301 -55 -211 -212
-413 -413 -534 -383 -230 -988 -144 -1321 189 -74 75 -105 119 -159 227 -23
45 -46 84 -51 87 -27 17 -87 -126 -116 -277 -20 -104 -19 -258 1 -327 12 -42
29 -66 73 -110 300 -290 1073 -378 1661 -189 134 43 340 147 441 223 200 151
367 381 445 612 77 231 73 509 -10 698 -68 153 -217 314 -381 412 -59 35 -95
63 -95 73 0 9 32 42 70 74 139 115 271 295 331 452 100 258 97 586 -8 850 -73
183 -165 317 -317 463 -140 134 -287 223 -478 290 -226 80 -588 112 -853 76z"/>
<path d="M8748 8786 c-86 -23 -156 -95 -200 -205 -25 -64 -26 -70 -17 -846 6
-643 -18 -966 -123 -1602 -18 -112 -20 -136 -8 -157 20 -38 59 -49 158 -44
106 5 170 34 244 110 58 60 87 114 123 231 14 48 30 87 34 87 18 0 46 -36 143
-185 387 -594 712 -914 1008 -990 46 -12 93 -16 160 -13 84 3 104 8 171 40 42
19 92 52 112 72 37 37 87 123 87 150 0 33 -39 58 -151 96 -273 91 -523 257
-801 532 -116 115 -305 324 -340 376 -26 39 -11 59 80 107 187 100 319 245
396 439 93 232 67 502 -63 648 -49 55 -157 113 -239 128 -170 31 -345 -102
-462 -353 -43 -92 -66 -120 -76 -94 -3 9 0 83 7 164 20 223 16 978 -5 1148
-21 164 -29 175 -125 174 -36 0 -87 -6 -113 -13z m657 -1579 c80 -80 60 -227
-47 -342 -63 -69 -185 -115 -264 -101 -29 6 -34 11 -34 34 1 66 126 313 195
384 29 30 77 57 104 58 7 0 28 -15 46 -33z"/>
<path d="M3232 8771 c-86 -14 -89 -23 -127 -456 -31 -344 -44 -608 -52 -1052
-6 -378 2 -522 41 -693 72 -314 192 -512 361 -596 131 -65 274 -55 443 30 139
70 214 151 327 355 40 71 77 126 85 126 10 0 28 -36 50 -100 48 -134 89 -208
160 -287 137 -152 288 -198 486 -148 176 45 312 148 395 301 45 83 72 119 88
119 5 0 38 -53 73 -117 83 -154 169 -245 283 -299 71 -35 87 -38 185 -42 81
-3 120 0 165 13 183 53 337 188 454 399 29 53 56 98 60 101 14 8 36 -25 81
-119 139 -287 348 -417 649 -403 170 7 309 55 446 152 69 49 217 200 290 295
117 153 234 382 286 562 21 73 21 79 5 103 -12 18 -25 25 -47 25 -34 0 -69
-16 -69 -31 0 -31 -156 -352 -213 -436 -122 -184 -320 -369 -439 -409 -34 -12
-83 -18 -138 -19 -73 0 -93 4 -141 27 -116 58 -206 185 -248 353 -23 93 -43
292 -37 374 15 206 83 408 170 508 69 79 201 117 281 81 39 -18 67 -71 72
-141 5 -61 -3 -96 -48 -205 -13 -32 -13 -35 10 -53 37 -30 109 -26 157 10 107
77 155 181 155 336 1 224 -129 417 -326 485 -291 101 -591 -70 -782 -446 -61
-120 -96 -223 -123 -369 -62 -330 -116 -526 -184 -670 -85 -178 -169 -256
-279 -263 -188 -10 -287 188 -287 571 0 111 24 453 44 622 19 164 10 224 -51
345 -41 80 -56 100 -96 127 -59 39 -101 53 -189 60 -66 6 -68 5 -101 -28 l-33
-34 -27 -230 c-15 -126 -36 -324 -47 -440 -59 -627 -183 -944 -377 -962 -74
-8 -125 11 -171 61 -83 90 -92 198 -52 657 11 129 25 294 31 368 6 74 9 176 7
227 -3 84 -7 100 -46 177 -68 138 -143 189 -297 204 -54 5 -64 3 -89 -18 -36
-31 -40 -53 -75 -385 -45 -419 -40 -391 -76 -443 -20 -29 -40 -79 -53 -134
-106 -425 -226 -651 -375 -706 -117 -44 -227 37 -281 209 -54 171 -61 244 -61
665 0 220 6 466 13 565 7 96 17 238 22 315 5 77 15 211 22 298 14 183 6 252
-40 350 -67 144 -150 185 -320 158z"/>
<path d="M17210 8159 c-168 -22 -373 -106 -535 -220 -50 -35 -148 -122 -220
-194 -202 -203 -344 -408 -508 -732 -121 -241 -127 -241 -127 -20 0 210 -14
318 -56 447 -41 124 -86 208 -149 278 -63 70 -87 76 -240 63 -297 -26 -559
-119 -814 -288 -119 -79 -261 -205 -261 -231 0 -8 29 -45 64 -82 72 -77 156
-218 222 -375 l45 -104 9 -343 c5 -189 10 -455 10 -593 0 -425 10 -653 30
-678 l17 -20 464 17 c495 18 532 20 566 42 30 19 37 66 68 409 27 307 42 411
76 540 52 198 168 448 287 614 76 107 244 287 336 360 93 74 149 101 213 101
99 0 159 -48 220 -177 64 -134 64 -133 74 -663 10 -578 27 -1153 35 -1185 12
-48 29 -49 555 -37 268 7 499 16 512 21 35 14 38 31 16 112 -101 385 -126 971
-65 1494 58 492 42 815 -51 1050 -65 163 -161 284 -265 332 -124 58 -354 85
-528 62z"/>
<path d="M10786 7940 c-199 -32 -350 -104 -478 -231 -183 -181 -221 -359 -119
-564 50 -101 84 -140 240 -276 221 -194 306 -310 306 -419 -1 -111 -69 -183
-174 -183 -94 0 -141 36 -187 141 -33 77 -66 99 -119 82 -42 -14 -89 -66 -105
-116 -29 -88 13 -227 93 -307 117 -117 312 -156 542 -108 196 40 322 134 400
296 53 109 71 209 57 310 -21 143 -75 230 -277 451 -113 124 -209 244 -238
298 -29 56 -31 166 -2 214 33 55 75 74 160 74 94 0 144 -27 213 -112 43 -55
50 -60 86 -60 57 0 109 55 125 132 33 159 -56 299 -227 359 -67 24 -208 32
-296 19z"/>
<path d="M26683 7915 c-18 -8 -37 -24 -42 -37 -32 -77 -79 -691 -91 -1168 -13
-522 -15 -560 -45 -691 -91 -392 -221 -625 -368 -658 -131 -29 -227 43 -285
213 l-27 81 0 300 c0 183 5 336 13 393 26 196 32 333 17 405 -18 85 -77 199
-124 238 -53 43 -135 71 -213 73 -59 1 -70 -2 -93 -24 -15 -16 -28 -44 -34
-77 -13 -69 -56 -437 -81 -700 -46 -491 -160 -804 -316 -869 -76 -32 -180 -5
-226 57 -55 75 -62 109 -60 304 1 161 10 291 54 763 14 156 5 236 -41 336 -55
121 -138 186 -268 207 -77 13 -113 4 -137 -33 -41 -63 -126 -979 -112 -1210
11 -180 29 -261 85 -373 75 -149 154 -235 271 -293 48 -23 70 -27 166 -31 127
-4 185 9 294 64 122 61 194 136 274 285 27 50 54 89 60 87 6 -2 34 -46 61 -98
67 -126 103 -176 172 -239 103 -94 223 -136 368 -128 228 14 432 174 569 446
37 74 58 94 78 74 6 -6 28 -52 48 -102 119 -288 262 -399 499 -388 109 5 179
29 291 103 121 78 173 142 279 344 89 167 96 168 145 25 62 -179 144 -319 223
-382 81 -64 140 -85 244 -90 110 -5 188 11 285 59 150 74 244 182 359 414 83
168 118 275 144 447 9 65 20 120 24 124 10 11 309 -250 364 -318 98 -121 124
-216 84 -303 -44 -95 -133 -129 -226 -86 -53 24 -77 52 -116 134 -17 37 -41
73 -52 78 -54 29 -144 -37 -168 -123 -28 -105 11 -217 108 -309 96 -91 221
-127 403 -116 187 12 320 67 420 173 131 140 187 335 145 498 -32 122 -81 194
-290 427 -212 235 -240 283 -233 389 9 116 55 160 171 160 93 0 130 -18 213
-106 65 -69 73 -75 100 -68 69 17 109 72 120 167 11 90 -15 157 -89 232 -81
82 -143 107 -282 113 -251 11 -469 -72 -641 -243 -159 -159 -198 -349 -110
-544 46 -101 46 -107 -3 -103 -52 5 -59 -7 -106 -183 -78 -291 -156 -472 -245
-564 -85 -89 -166 -111 -250 -68 -62 31 -104 91 -139 200 -52 162 -56 220 -55
712 0 399 3 488 28 790 35 424 36 522 12 595 -41 121 -102 202 -164 220 -53
14 -177 12 -216 -4 -23 -9 -37 -24 -45 -47 -34 -95 -100 -1030 -101 -1425 0
-132 -4 -193 -14 -223 -8 -22 -38 -123 -65 -223 -80 -291 -154 -452 -250 -541
-80 -74 -146 -92 -219 -61 -101 42 -158 156 -199 394 -19 116 -28 598 -15 825
6 99 24 356 39 572 31 439 29 471 -27 591 -38 80 -62 109 -115 133 -49 23
-184 25 -232 4z"/>
<path d="M12580 6221 c-39 -12 -84 -38 -119 -67 -24 -20 -31 -34 -31 -63 0
-47 36 -154 85 -251 147 -294 443 -507 815 -588 104 -23 136 -16 125 25 -9 38
-132 282 -190 379 -74 121 -203 299 -272 374 -136 147 -303 224 -413 191z"/>
<path d="M13532 5968 c-37 -37 12 -167 97 -260 54 -59 136 -118 164 -118 26 0
31 45 13 117 -42 173 -126 273 -229 273 -18 0 -38 -5 -45 -12z"/>
<path d="M10358 5060 c-38 -22 -53 -96 -53 -255 1 -354 119 -769 311 -1090 33
-55 66 -118 73 -140 17 -49 75 -139 106 -163 12 -10 59 -63 102 -118 191 -237
443 -438 736 -586 172 -86 520 -209 721 -254 61 -14 143 -34 181 -45 39 -11
108 -26 155 -34 47 -7 110 -18 140 -24 204 -41 390 -72 478 -81 57 -6 114 -15
127 -20 13 -5 91 -16 172 -25 81 -8 209 -24 283 -35 134 -20 343 -37 790 -65
129 -8 249 -17 267 -20 18 -3 252 -10 520 -15 268 -6 606 -13 751 -17 l262 -6
0 296 0 296 -37 -7 c-21 -4 -317 -7 -658 -7 -624 0 -752 5 -965 40 -47 8 -148
19 -225 25 -78 5 -190 19 -250 30 -61 12 -144 25 -185 30 -269 34 -979 218
-1252 325 -205 81 -257 99 -265 91 -43 -43 532 -315 936 -442 190 -59 222 -72
229 -91 5 -16 -110 -17 -178 -2 -25 5 -120 20 -213 34 -92 13 -184 29 -205 34
-20 6 -82 17 -137 25 -146 22 -313 57 -566 121 -584 148 -859 283 -1135 559
-148 148 -228 261 -323 452 -120 242 -158 391 -167 649 -9 252 1 268 116 201
161 -94 447 -189 685 -226 72 -11 173 -29 225 -39 52 -11 133 -22 180 -26 214
-15 317 -28 343 -42 37 -19 34 -40 -22 -186 -32 -83 -41 -119 -39 -155 4 -66
28 -68 64 -5 82 146 198 282 263 310 29 12 93 14 405 8 204 -3 386 -8 403 -11
55 -8 58 -33 13 -105 -57 -90 -106 -188 -118 -232 -9 -32 -8 -39 5 -44 10 -4
46 27 115 100 103 111 200 184 334 250 l70 35 360 7 c197 3 384 11 414 17 100
19 790 46 1220 47 380 1 375 3 435 -204 13 -47 28 -129 31 -181 7 -101 25
-143 53 -125 29 19 40 222 20 370 -10 72 -9 84 5 100 9 10 16 35 16 59 l0 42
-859 0 c-623 0 -928 4 -1108 14 -136 8 -331 18 -433 21 -102 4 -216 11 -255
16 -38 5 -248 14 -465 19 -383 9 -703 29 -785 50 -22 5 -112 14 -200 20 -88 6
-209 20 -270 31 -60 11 -170 28 -243 39 -175 26 -446 91 -583 140 -108 39
-171 55 -634 165 -132 31 -247 58 -255 60 -8 3 -23 0 -32 -5z"/>
<path d="M7728 837 c-77 -18 -146 -63 -185 -121 -105 -156 -74 -379 66 -471
104 -70 287 -72 385 -5 56 39 66 65 66 177 0 133 -2 135 -140 131 -84 -2 -105
-6 -114 -20 -14 -24 18 -58 56 -58 16 0 44 -7 63 -14 33 -14 35 -18 35 -61 0
-56 -28 -88 -91 -105 -95 -26 -205 15 -253 94 -74 119 -27 291 96 349 66 31
112 32 192 3 60 -22 79 -25 95 -16 30 15 26 44 -9 74 -53 44 -169 63 -262 43z"/>
<path d="M18803 836 c-90 -29 -133 -81 -133 -161 0 -105 56 -154 217 -186 110
-23 147 -41 163 -79 24 -57 -13 -107 -96 -129 -55 -15 -95 -6 -179 39 -54 29
-75 36 -92 29 -52 -19 -4 -99 82 -135 60 -25 180 -30 247 -10 100 29 148 86
148 178 0 103 -57 153 -215 188 -117 26 -152 42 -167 75 -15 32 4 76 41 98 41
24 127 22 185 -4 62 -27 100 -23 104 12 8 72 -179 124 -305 85z"/>
<path d="M8620 827 c-91 -26 -164 -89 -204 -176 -15 -35 -20 -67 -21 -136 0
-112 24 -173 96 -240 72 -67 106 -79 224 -80 90 0 106 3 157 28 95 47 153 139
165 261 12 133 -63 274 -174 326 -58 27 -178 36 -243 17z m173 -90 c48 -21 95
-64 119 -111 48 -91 19 -244 -56 -300 -110 -82 -275 -48 -335 69 -52 99 -25
252 53 308 64 45 157 60 219 34z"/>
<path d="M9600 831 c-87 -18 -173 -91 -213 -180 -31 -70 -34 -181 -7 -254 32
-84 76 -137 145 -172 53 -27 68 -30 154 -30 126 0 174 18 240 91 62 68 86 133
85 234 -1 219 -180 356 -404 311z m179 -107 c97 -49 147 -157 122 -267 -16
-74 -51 -120 -113 -151 -107 -53 -232 -20 -293 79 -27 43 -30 57 -30 130 0 73
3 87 30 130 61 98 179 131 284 79z"/>
<path d="M12718 827 c-66 -19 -121 -60 -162 -120 -49 -73 -59 -115 -54 -216 7
-135 63 -222 173 -273 41 -18 67 -22 145 -22 114 0 179 24 236 86 60 67 78
119 79 228 0 84 -3 102 -29 158 -31 66 -72 109 -136 142 -51 26 -187 35 -252
17z m187 -96 c84 -38 134 -117 135 -211 0 -85 -17 -130 -66 -177 -101 -98
-263 -80 -340 37 -36 54 -45 168 -20 235 20 50 83 110 131 124 50 15 118 12
160 -8z"/>
<path d="M21337 831 c-62 -5 -82 -10 -93 -25 -11 -16 -14 -73 -14 -292 l0
-273 27 -21 c26 -20 36 -21 193 -18 154 3 169 5 214 28 90 47 113 145 56 245
l-30 53 25 53 c30 64 31 90 6 145 -21 46 -57 78 -104 93 -42 12 -183 18 -280
12z m226 -102 c68 -19 88 -92 36 -131 -19 -14 -49 -21 -106 -25 -125 -9 -163
9 -163 73 0 44 15 72 43 84 31 12 145 12 190 -1z m44 -277 c59 -42 53 -110
-12 -141 -46 -22 -202 -20 -238 3 -24 16 -27 24 -27 76 0 82 15 91 145 87 86
-2 104 -5 132 -25z"/>
<path d="M10387 813 c-15 -18 -17 -48 -17 -302 l0 -282 35 -15 c42 -17 210
-19 287 -3 103 21 171 80 208 178 27 71 33 125 20 188 -22 107 -72 178 -154
221 -48 25 -61 27 -206 30 -143 3 -157 2 -173 -15z m318 -98 c41 -17 92 -71
106 -113 6 -18 9 -66 7 -106 -4 -83 -28 -126 -94 -167 -50 -30 -176 -39 -222
-15 l-32 17 0 177 c0 195 6 217 58 225 40 7 143 -3 177 -18z"/>
<path d="M11713 823 c-17 -6 -16 -48 0 -62 8 -6 42 -15 77 -20 97 -13 96 -8
103 -276 6 -232 10 -255 48 -255 43 0 46 17 51 260 5 269 1 259 104 271 36 5
73 14 80 20 23 19 17 49 -12 59 -25 10 -428 13 -451 3z"/>
<path d="M13920 815 c-30 -36 19 -73 101 -74 21 -1 47 -10 60 -20 24 -19 24
-22 29 -256 5 -253 6 -254 58 -255 15 0 26 8 32 26 6 14 10 122 10 240 0 211
0 215 23 238 17 17 40 25 84 30 72 8 102 31 83 65 -10 20 -18 21 -239 21 -188
0 -231 -3 -241 -15z"/>
<path d="M15699 803 c-11 -21 -14 -82 -14 -294 0 -244 2 -270 18 -286 15 -16
40 -18 185 -21 201 -4 246 3 250 39 6 49 -19 57 -176 61 -139 3 -144 4 -164
28 -15 19 -19 34 -15 65 9 61 33 75 131 75 129 0 185 10 198 33 9 17 7 24 -12
39 -19 15 -41 18 -139 18 -129 0 -159 10 -174 53 -12 38 0 94 23 107 10 5 79
11 154 13 115 2 138 5 155 21 12 11 21 27 21 36 0 37 -19 40 -225 40 l-202 0
-14 -27z"/>
<path d="M17966 808 c-31 -28 -259 -540 -254 -571 2 -18 10 -22 38 -22 28 0
38 6 57 35 47 73 46 73 119 82 69 9 228 2 252 -11 7 -4 27 -29 45 -57 28 -42
37 -49 70 -52 32 -3 37 0 37 17 0 51 -219 544 -257 579 -13 12 -37 22 -53 22
-16 0 -40 -10 -54 -22z m108 -206 c18 -37 39 -85 46 -106 12 -37 11 -41 -10
-58 -27 -22 -131 -25 -170 -5 -34 18 -30 49 16 149 36 75 59 103 77 91 4 -2
23 -35 41 -71z"/>
<path d="M19493 823 c-17 -6 -16 -48 1 -62 7 -6 41 -14 74 -17 98 -11 96 -7
100 -267 4 -235 10 -267 52 -267 37 0 44 35 48 265 5 260 4 259 103 268 63 6
89 19 89 46 0 38 -17 41 -239 40 -119 0 -222 -3 -228 -6z"/>
<path d="M22154 820 c-31 -12 -34 -43 -34 -314 0 -258 5 -288 49 -294 47 -7
50 12 51 301 0 155 -4 276 -10 286 -12 24 -30 30 -56 21z"/>
<path d="M22572 818 c-37 -37 16 -78 100 -78 24 0 49 -4 57 -9 22 -14 30 -87
31 -289 0 -113 4 -201 10 -213 13 -24 58 -25 76 -1 10 13 13 69 14 234 0 138
4 226 11 242 12 25 35 36 79 36 42 0 98 20 104 36 3 8 1 24 -4 35 -10 18 -24
19 -238 19 -164 0 -231 -3 -240 -12z"/>
<path d="M23426 808 c-14 -19 -16 -64 -16 -293 0 -148 4 -275 8 -281 18 -28
56 -34 215 -34 189 0 227 8 227 49 0 40 -33 51 -159 51 -141 0 -168 6 -186 40
-17 33 -10 93 14 113 11 10 53 16 141 20 69 2 133 8 143 12 9 4 17 18 17 31 0
35 -33 44 -155 44 -57 0 -115 4 -128 9 -49 19 -59 127 -14 149 12 6 84 13 159
15 90 3 143 9 153 17 21 18 19 57 -4 70 -12 6 -98 10 -210 10 -185 0 -190 -1
-205 -22z"/>
<path d="M14762 803 c-4 -10 -7 -140 -7 -289 0 -284 3 -304 45 -304 30 0 39
23 46 114 10 130 12 131 173 131 106 0 133 -3 146 -16 12 -11 18 -45 23 -113
8 -99 15 -115 53 -116 37 0 39 20 37 316 l-3 289 -31 3 c-17 2 -36 -3 -41 -10
-6 -7 -13 -58 -15 -114 -2 -66 -8 -107 -17 -117 -11 -14 -35 -17 -152 -17
-167 0 -164 -3 -172 138 -3 52 -11 100 -18 108 -16 20 -58 18 -67 -3z"/>
<path d="M17000 801 c-6 -12 -10 -124 -10 -294 0 -238 2 -276 16 -288 19 -15
275 -25 343 -12 56 10 75 37 44 62 -17 14 -48 19 -144 24 -174 10 -163 -9
-169 275 -3 125 -9 233 -13 240 -13 19 -55 14 -67 -7z"/>
</g>
</svg>
